<svg width="62" height="19" viewBox="0 0 62 19" fill="none" xmlns="http://www.w3.org/2000/svg">
<path d="M7.60867 18.2386C6.33594 18.2386 5.20241 18.0199 4.2081 17.5824C3.21946 17.1392 2.43821 16.5312 1.86435 15.7585C1.29616 14.9801 1.00355 14.0824 0.986506 13.0653H4.70241C4.72514 13.4915 4.86435 13.8665 5.12003 14.1903C5.38139 14.5085 5.72798 14.7557 6.1598 14.9318C6.59162 15.108 7.07741 15.196 7.61719 15.196C8.17969 15.196 8.67685 15.0966 9.10867 14.8977C9.54048 14.6989 9.87855 14.4233 10.1229 14.071C10.3672 13.7187 10.4893 13.3125 10.4893 12.8523C10.4893 12.3864 10.3587 11.9744 10.0973 11.6165C9.84162 11.2528 9.4723 10.9687 8.98935 10.7642C8.51207 10.5597 7.94389 10.4574 7.2848 10.4574H5.65696V7.74716H7.2848C7.84162 7.74716 8.3331 7.65057 8.75923 7.45739C9.19105 7.2642 9.52628 6.99716 9.76492 6.65625C10.0036 6.30966 10.1229 5.90625 10.1229 5.44602C10.1229 5.00852 10.0178 4.625 9.80753 4.29545C9.60298 3.96023 9.31321 3.69886 8.93821 3.51136C8.56889 3.32386 8.13707 3.23011 7.64276 3.23011C7.14276 3.23011 6.68537 3.32102 6.2706 3.50284C5.85582 3.67898 5.52344 3.93182 5.27344 4.26136C5.02344 4.59091 4.88991 4.97727 4.87287 5.42045H1.33594C1.35298 4.41477 1.63991 3.52841 2.19673 2.76136C2.75355 1.99432 3.50355 1.39489 4.44673 0.963068C5.3956 0.525568 6.46662 0.306818 7.6598 0.306818C8.86435 0.306818 9.91832 0.525568 10.8217 0.963068C11.7251 1.40057 12.4268 1.99148 12.9268 2.73579C13.4325 3.47443 13.6825 4.30398 13.6768 5.22443C13.6825 6.2017 13.3786 7.01705 12.7649 7.67045C12.157 8.32386 11.3643 8.73864 10.3871 8.91477V9.05114C11.6712 9.21591 12.6484 9.66193 13.3189 10.3892C13.995 11.1108 14.3303 12.0142 14.3246 13.0994C14.3303 14.0938 14.0433 14.9773 13.4638 15.75C12.8899 16.5227 12.0973 17.1307 11.0859 17.5739C10.0746 18.017 8.91548 18.2386 7.60867 18.2386Z" fill="#FFA63D"/>
<path d="M23.267 18H17.0795V0.545454H23.3182C25.0739 0.545454 26.5852 0.894886 27.8523 1.59375C29.1193 2.28693 30.0938 3.28409 30.7756 4.58523C31.4631 5.88636 31.8068 7.44318 31.8068 9.25568C31.8068 11.0739 31.4631 12.6364 30.7756 13.9432C30.0938 15.25 29.1136 16.2528 27.8352 16.9517C26.5625 17.6506 25.0398 18 23.267 18ZM20.7699 14.8381H23.1136C24.2045 14.8381 25.1222 14.6449 25.8665 14.2585C26.6165 13.8665 27.179 13.2614 27.554 12.4432C27.9347 11.6193 28.125 10.5568 28.125 9.25568C28.125 7.96591 27.9347 6.91193 27.554 6.09375C27.179 5.27557 26.6193 4.6733 25.875 4.28693C25.1307 3.90057 24.2131 3.70739 23.1222 3.70739H20.7699V14.8381Z" fill="#D8542B"/>
<path d="M34.5405 18V0.545454H41.4268C42.7507 0.545454 43.8786 0.798295 44.8104 1.30398C45.7422 1.80398 46.4524 2.5 46.9411 3.39204C47.4354 4.27841 47.6825 5.30114 47.6825 6.46023C47.6825 7.61932 47.4325 8.64205 46.9325 9.52841C46.4325 10.4148 45.7081 11.1051 44.7592 11.5994C43.8161 12.0937 42.674 12.3409 41.3331 12.3409H36.9439V9.38352H40.7365C41.4467 9.38352 42.032 9.26136 42.4922 9.01705C42.9581 8.76705 43.3047 8.4233 43.532 7.9858C43.7649 7.54261 43.8814 7.03409 43.8814 6.46023C43.8814 5.88068 43.7649 5.375 43.532 4.94318C43.3047 4.50568 42.9581 4.16761 42.4922 3.92898C42.0263 3.68466 41.4354 3.5625 40.7195 3.5625H38.2308V18H34.5405Z" fill="#5662F6"/>
<path d="M50.0795 18V0.545454H61.8409V3.58807H53.7699V7.74716H61.2358V10.7898H53.7699V14.9574H61.875V18H50.0795Z" fill="white"/>
</svg>
