<svg width="174" height="147" viewBox="0 0 174 147" fill="none" xmlns="http://www.w3.org/2000/svg">
<path d="M79.6647 29.0991L86.4797 43.9319L93.2948 29.0991C99.0707 16.5281 112.419 7.5032 128.206 7.5032C148.906 7.5032 164.294 23.7168 166.256 44.0039L166.296 44.4181L166.361 44.7272C166.37 44.7842 166.389 44.9168 166.41 45.1231C166.455 45.5624 166.51 46.3382 166.498 47.4339C166.474 49.6204 166.181 53.1104 164.982 57.7729L164.982 57.7732C161.743 70.3721 154.07 81.7836 143.464 90.6181C143.457 90.6239 143.45 90.6296 143.443 90.6354L86.5205 137.271L30.561 90.6353L30.5563 90.6314C19.9401 81.7986 12.2588 70.3777 9.0178 57.77L9.01771 57.7697C7.81895 53.1072 7.52605 49.6172 7.50172 47.4307C7.48952 46.335 7.5447 45.5592 7.58969 45.1199C7.61081 44.9137 7.62974 44.7811 7.63852 44.724L7.70352 44.4149L7.74358 44.0007C9.70564 23.7136 25.0936 7.5 45.7942 7.5C61.3859 7.5 73.8048 16.3454 79.6647 29.0991Z" stroke="#D8882B" stroke-width="15"/>
</svg>
