<svg width="129" height="110" viewBox="0 0 129 126" fill="none" xmlns="http://www.w3.org/2000/svg">
<mask id="path-1-inside-1_164_41" fill="white">
<path d="M70.728 3.95548L85.2776 34.0658C86.2894 36.16 88.2456 37.6111 90.5087 37.9464L123.044 42.7752C128.743 43.6216 131.017 50.7727 126.895 54.8759L103.352 78.3134C101.716 79.9431 100.968 82.2929 101.356 84.5932L106.912 117.688C107.886 123.484 101.929 127.904 96.8322 125.169L67.7331 109.545C65.7096 108.459 63.2904 108.459 61.2669 109.545L32.1678 125.169C27.0713 127.906 21.1137 123.484 22.0878 117.688L27.6444 84.5932C28.0319 82.2929 27.2838 79.9431 25.6478 78.3134L2.10532 54.8759C-2.01711 50.77 0.256684 43.6189 5.95596 42.7752L38.4913 37.9464C40.7544 37.6111 42.7106 36.16 43.7224 34.0658L58.272 3.95548C60.8175 -1.3185 68.1798 -1.3185 70.728 3.95548Z"/>
</mask>
<path d="M70.728 3.95548L57.222 10.4813L57.2221 10.4816L70.728 3.95548ZM85.2776 34.0658L98.7839 27.5405L98.7835 27.5397L85.2776 34.0658ZM90.5087 37.9464L92.7108 23.1089L92.7071 23.1084L90.5087 37.9464ZM123.044 42.7752L125.248 27.9379L125.246 27.9377L123.044 42.7752ZM126.895 54.8759L116.313 44.2446L116.312 44.2456L126.895 54.8759ZM103.352 78.3134L92.7693 67.6831L92.7661 67.6863L103.352 78.3134ZM101.356 84.5932L116.149 82.1095L116.147 82.1016L101.356 84.5932ZM106.912 117.688L92.1193 120.172L92.1197 120.174L106.912 117.688ZM96.8322 125.169L89.7365 138.385L89.7403 138.387L96.8322 125.169ZM67.7331 109.545L74.8288 96.3295L74.8242 96.327L67.7331 109.545ZM61.2669 109.545L54.1758 96.327L54.1712 96.3295L61.2669 109.545ZM32.1678 125.169L25.072 111.954L25.0703 111.954L32.1678 125.169ZM22.0878 117.688L36.8803 120.174L36.8807 120.172L22.0878 117.688ZM27.6444 84.5932L12.8528 82.1016L12.8515 82.1095L27.6444 84.5932ZM25.6478 78.3134L36.2339 67.6863L36.2307 67.6831L25.6478 78.3134ZM2.10532 54.8759L-8.48004 65.5037L-8.47755 65.5062L2.10532 54.8759ZM5.95596 42.7752L8.15263 57.6134L8.15807 57.6126L5.95596 42.7752ZM38.4913 37.9464L36.2929 23.1084L36.2892 23.1089L38.4913 37.9464ZM43.7224 34.0658L30.2165 27.5397L30.2161 27.5405L43.7224 34.0658ZM58.272 3.95548L71.7779 10.4816L71.7807 10.4757L58.272 3.95548ZM57.2221 10.4816L71.7717 40.592L98.7835 27.5397L84.2339 -2.57068L57.2221 10.4816ZM71.7713 40.5911C74.9009 47.0688 81.0376 51.7069 88.3102 52.7844L92.7071 23.1084C95.4537 23.5153 97.6779 25.2512 98.7839 27.5405L71.7713 40.5911ZM88.3065 52.7839L120.842 57.6126L125.246 27.9377L92.7108 23.1089L88.3065 52.7839ZM120.84 57.6124C113.904 56.5821 112.001 48.5363 116.313 44.2446L137.476 65.5073C150.033 53.0091 143.583 30.6611 125.248 27.9379L120.84 57.6124ZM116.312 44.2456L92.7693 67.6831L113.935 88.9437L137.478 65.5062L116.312 44.2456ZM92.7661 67.6863C87.6479 72.7848 85.3772 80.0393 86.564 87.0849L116.147 82.1016C116.559 84.5465 115.784 87.1014 113.938 88.9405L92.7661 67.6863ZM86.5626 87.077L92.1193 120.172L121.705 115.204L116.149 82.1095L86.5626 87.077ZM92.1197 120.174C91.148 114.392 97.3985 108.45 103.924 111.951L89.7403 138.387C106.459 147.357 124.625 132.576 121.705 115.202L92.1197 120.174ZM103.928 111.954L74.8288 96.3295L60.6373 122.761L89.7365 138.385L103.928 111.954ZM74.8242 96.327C68.3718 92.8654 60.6282 92.8654 54.1758 96.327L68.358 122.763C65.9527 124.053 63.0473 124.053 60.642 122.763L74.8242 96.327ZM54.1712 96.3295L25.072 111.954L39.2635 138.385L68.3627 122.761L54.1712 96.3295ZM25.0703 111.954C31.6089 108.443 37.85 114.404 36.8803 120.174L7.2952 115.202C4.3773 132.565 22.5336 147.37 39.2652 138.384L25.0703 111.954ZM36.8807 120.172L42.4374 87.077L12.8515 82.1095L7.29482 115.204L36.8807 120.172ZM42.436 87.0849C43.6228 80.0393 41.3521 72.7848 36.2339 67.6863L15.0617 88.9405C13.2156 87.1014 12.441 84.5465 12.8528 82.1016L42.436 87.0849ZM36.2307 67.6831L12.6882 44.2456L-8.47755 65.5062L15.0649 88.9437L36.2307 67.6831ZM12.6907 44.2481C16.9876 48.5278 15.109 56.5836 8.15263 57.6134L3.75928 27.9369C-14.5957 30.6542 -21.0218 53.0121 -8.48004 65.5037L12.6907 44.2481ZM8.15807 57.6126L40.6935 52.7839L36.2892 23.1089L3.75385 27.9377L8.15807 57.6126ZM40.6898 52.7844C47.9624 51.7069 54.0991 47.0688 57.2287 40.5911L30.2161 27.5405C31.3221 25.2512 33.5463 23.5153 36.2929 23.1084L40.6898 52.7844ZM57.2283 40.592L71.7779 10.4816L44.7661 -2.57068L30.2165 27.5397L57.2283 40.592ZM71.7807 10.4757C68.8662 16.5141 60.1302 16.5003 57.222 10.4813L84.2341 -2.57032C76.2294 -19.1373 52.7689 -19.1511 44.7632 -2.56473L71.7807 10.4757Z" fill="#D8882B" mask="url(#path-1-inside-1_164_41)"/>
</svg>
