<?xml version="1.0" encoding="UTF-8"?>
<svg id="Layer_1" data-name="Layer 1" xmlns="http://www.w3.org/2000/svg" viewBox="0 0 512 512">
  <defs>
    <style>
      .cls-1 {
        fill: #fff;
        stroke-width: 0px;
      }
    </style>
  </defs>
  <path class="cls-1" d="M256,390.98c-74.41,0-134.98-60.55-134.98-134.98s60.57-134.98,134.98-134.98,134.98,60.55,134.98,134.98-60.57,134.98-134.98,134.98ZM256,159.58c-53.16,0-96.42,43.25-96.42,96.42s43.25,96.42,96.42,96.42,96.42-43.25,96.42-96.42-43.25-96.42-96.42-96.42Z"/>
  <path class="cls-1" d="M404.95,139.64c17.99,0,32.58-14.59,32.58-32.58s-14.59-32.58-32.58-32.58-32.58,14.59-32.58,32.58,14.59,32.58,32.58,32.58Z"/>
  <path class="cls-1" d="M374.15,512h-236.31C61.85,512,0,450.17,0,374.15v-236.31C0,61.83,61.85,0,137.85,0h236.31c75.99,0,137.85,61.83,137.85,137.85v236.31c0,76.01-61.85,137.85-137.85,137.85ZM137.85,39.38c-54.29,0-98.46,44.17-98.46,98.46v236.31c0,54.29,44.17,98.46,98.46,98.46h236.31c54.29,0,98.46-44.17,98.46-98.46v-236.31c0-54.29-44.17-98.46-98.46-98.46h-236.31Z"/>
</svg>