<?xml version="1.0" encoding="UTF-8"?>
<svg id="Layer_1" data-name="Layer 1" xmlns="http://www.w3.org/2000/svg" viewBox="0 0 512 512">
  <defs>
    <style>
      .cls-1 {
        fill: #fff;
        fill-rule: evenodd;
        stroke-width: 0px;
      }
    </style>
  </defs>
  <path class="cls-1" d="M512,256c0,141.38-114.62,256-256,256S0,397.38,0,256,114.62,0,256,0s256,114.62,256,256ZM92.53,249.85c0-80.75,58.66-154.92,169.16-154.92,88.81,0,157.82,63.27,157.82,147.86s-55.64,159.23-132.84,159.23c-25.95,0-50.32-13.48-58.66-29.4,0,0-12.84,48.88-15.96,60.86-5.78,22.23-21.37,50.1-31.83,67.1-5.97-1.85-11.75-4.11-17.52-6.38-2.23-20.25-4.23-51.21.91-73.26,4.65-19.97,30.02-127.25,30.02-127.25,0,0-7.66-15.34-7.66-38,0-35.6,20.63-62.17,46.32-62.17,21.85,0,32.38,16.4,32.38,36.06,0,14.05-5.71,32.53-11.72,51.99-3.39,10.98-6.88,22.26-9.49,33.24-6.04,25.49,12.78,46.28,37.91,46.28,45.5,0,80.47-47.98,80.47-117.23,0-61.29-44.03-104.15-106.92-104.15-72.83,0-115.58,54.64-115.58,111.1,0,22,8.47,45.59,19.05,58.43,2.09,2.54,2.39,4.76,1.77,7.34-1.18,4.9-3.22,13.22-4.85,19.81-1.05,4.28-1.93,7.82-2.26,9.22-1.11,4.7-3.71,5.67-8.56,3.42-31.98-14.89-51.97-61.63-51.97-99.18Z"/>
</svg>