<?xml version="1.0" encoding="UTF-8"?>
<svg id="Layer_1" data-name="Layer 1" xmlns="http://www.w3.org/2000/svg" viewBox="0 0 512 512">
  <defs>
    <style>
      .cls-1 {
        fill: #fff;
        stroke-width: 0px;
      }
    </style>
  </defs>
  <path class="cls-1" d="M451.05,0H60.95C27.34,0,0,27.34,0,60.95v390.1C0,484.66,27.34,512,60.95,512h390.1c33.61,0,60.95-27.34,60.95-60.95V60.95c0-33.61-27.34-60.95-60.95-60.95ZM402.36,223.37c-2.77.26-5.57.43-8.41.43-31.98,0-60.08-16.44-76.42-41.3v140.64c0,57.41-46.54,103.95-103.95,103.95s-103.95-46.54-103.95-103.95,46.54-103.95,103.95-103.95c2.17,0,4.29.2,6.42.33v51.22c-2.13-.26-4.23-.65-6.42-.65-29.31,0-53.05,23.75-53.05,53.05s23.75,53.05,53.05,53.05,55.19-23.09,55.19-52.39c0-1.16.51-238.86.51-238.86h48.96c4.61,43.78,39.95,78.32,84.13,81.49v56.93Z"/>
</svg>