<?xml version="1.0" encoding="UTF-8"?>
<svg id="Layer_1" data-name="Layer 1" xmlns="http://www.w3.org/2000/svg" viewBox="0 0 512 512">
  <defs>
    <style>
      .cls-1 {
        fill: #fff;
        stroke-width: 0px;
      }
    </style>
  </defs>
  <path class="cls-1" d="M256,0C114.85,0,0,112.79,0,251.43,0,294.72,11.39,337.29,32.98,374.85L.41,488.97c-1.07,3.75-.03,7.77,2.73,10.56,2.13,2.15,5.02,3.32,7.99,3.32.89,0,1.79-.11,2.67-.32l121.28-29.5c37.03,19.52,78.74,29.82,120.92,29.82,141.16,0,256-112.79,256-251.43S397.16,0,256,0ZM384.78,340.15c-5.48,14.89-31.74,28.48-44.37,30.3-11.33,1.63-25.67,2.33-41.41-2.53-9.54-2.95-21.78-6.87-37.47-13.44-65.92-27.61-108.98-91.99-112.27-96.24-3.28-4.25-26.84-34.56-26.84-65.92s16.97-46.79,23.01-53.17c6.03-6.38,13.14-7.98,17.53-7.98s8.76.05,12.6.23c4.04.2,9.46-1.5,14.79,10.94,5.48,12.77,18.62,44.13,20.25,47.33,1.65,3.19,2.74,6.92.56,11.17-2.18,4.25-3.27,6.91-6.57,10.64-3.3,3.73-6.9,8.31-9.86,11.17-3.3,3.18-6.71,6.62-2.88,13.01,3.83,6.38,17.02,27.25,36.56,44.15,25.1,21.71,46.28,28.44,52.85,31.64,6.57,3.19,10.41,2.66,14.24-1.6,3.83-4.26,16.43-18.62,20.8-24.99,4.37-6.37,8.76-5.32,14.79-3.19,6.03,2.12,38.34,17.53,44.91,20.73,6.57,3.19,10.95,4.79,12.6,7.45,1.65,2.65,1.65,15.41-3.83,30.29Z"/>
</svg>