<?xml version="1.0" encoding="UTF-8"?>
<svg id="Layer_1" data-name="Layer 1" xmlns="http://www.w3.org/2000/svg" viewBox="0 0 512 512">
  <defs>
    <style>
      .cls-1 {
        fill: #fff;
        stroke-width: 0px;
      }
    </style>
  </defs>
  <path class="cls-1" d="M85.33,0C38.2,0,0,38.2,0,85.33v341.33C0,473.8,38.2,512,85.33,512h341.33c47.13,0,85.33-38.2,85.33-85.33V85.33c0-47.13-38.2-85.33-85.33-85.33H85.33ZM110.76,109.71h96.76l68.71,97.64,83.38-97.64h30.48l-100.1,117.19,123.43,175.38h-96.74l-79.74-113.29-96.76,113.29h-30.48l113.48-132.83L110.76,109.71ZM157.43,134.1l171.98,243.81h37.36l-171.98-243.81h-37.36Z"/>
</svg>